HIERARCHY
ROOT Hips
{
	OFFSET 0.000000 0.000000 0.000000 
	CHANNELS 6 Xposition Yposition Zposition Zrotation Yrotation Xrotation
	JOINT LHipJoint
	{
		OFFSET 0.000000 0.000000 0.000000 
		CHANNELS 3 Zrotation Yrotation Xrotation
		JOINT LeftUpLeg
		{
			OFFSET 1.091560 -1.614060 0.765000 
			CHANNELS 3 Zrotation Yrotation Xrotation
			JOINT LeftLeg
			{
				OFFSET 2.337500 -6.422250 0.000000 
				CHANNELS 3 Zrotation Yrotation Xrotation
				JOINT LeftFoot
				{
					OFFSET 2.492470 -6.848000 0.000000 
					CHANNELS 3 Zrotation Yrotation Xrotation
					JOINT LeftToeBase
					{
						OFFSET 0.153120 -0.420690 1.454610 
						CHANNELS 3 Zrotation Yrotation Xrotation
						End Site
						{
							OFFSET 0.000000 -0.000000 0.770460 
						}
					}
				}
			}
		}
	}
	JOINT RHipJoint
	{
		OFFSET 0.000000 0.000000 0.000000 
		CHANNELS 3 Zrotation Yrotation Xrotation
		JOINT RightUpLeg
		{
			OFFSET -0.998830 -1.614060 0.765000 
			CHANNELS 3 Zrotation Yrotation Xrotation
			JOINT RightLeg
			{
				OFFSET -2.368770 -6.508150 0.000000 
				CHANNELS 3 Zrotation Yrotation Xrotation
				JOINT RightFoot
				{
					OFFSET -2.534520 -6.963530 0.000000 
					CHANNELS 3 Zrotation Yrotation Xrotation
					JOINT RightToeBase
					{
						OFFSET -0.131560 -0.361450 1.632370 
						CHANNELS 3 Zrotation Yrotation Xrotation
						End Site
						{
							OFFSET -0.000000 -0.000000 0.849790 
						}
					}
				}
			}
		}
	}
	JOINT LowerBack
	{
		OFFSET 0.000000 0.000000 0.000000 
		CHANNELS 3 Zrotation Yrotation Xrotation
		JOINT Spine
		{
			OFFSET -0.024310 1.982420 -0.136160 
			CHANNELS 3 Zrotation Yrotation Xrotation
			JOINT Spine1
			{
				OFFSET 0.036290 1.989740 -0.029540 
				CHANNELS 3 Zrotation Yrotation Xrotation
				JOINT Neck
				{
					OFFSET 0.000000 0.000000 0.000000 
					CHANNELS 3 Zrotation Yrotation Xrotation
					JOINT Neck1
					{
						OFFSET 0.093490 1.407830 0.223330 
						CHANNELS 3 Zrotation Yrotation Xrotation
						JOINT Head
						{
							OFFSET -0.042730 1.445000 -0.064950 
							CHANNELS 3 Zrotation Yrotation Xrotation
							End Site
							{
								OFFSET -0.022510 1.446000 -0.045440 
							}
						}
					}
				}
				JOINT LeftShoulder
				{
					OFFSET 0.000000 0.000000 0.000000 
					CHANNELS 3 Zrotation Yrotation Xrotation
					JOINT LeftArm
					{
						OFFSET 3.491370 0.851260 -0.297400 
						CHANNELS 3 Zrotation Yrotation Xrotation
						JOINT LeftForeArm
						{
							OFFSET 5.060350 -0.000000 0.000000 
							CHANNELS 3 Zrotation Yrotation Xrotation
							JOINT LeftHand
							{
								OFFSET 3.147800 -0.000000 0.000000 
								CHANNELS 3 Zrotation Yrotation Xrotation
								JOINT LeftFingerBase
								{
									OFFSET 0.000000 0.000000 0.000000 
									CHANNELS 3 Zrotation Yrotation Xrotation
									JOINT LeftHandIndex1
									{
										OFFSET 0.606750 -0.000000 0.000000 
										CHANNELS 3 Zrotation Yrotation Xrotation
										End Site
										{
											OFFSET 0.489180 -0.000000 0.000000 
										}
									}
								}
								JOINT LThumb
								{
									OFFSET 0.000000 0.000000 0.000000 
									CHANNELS 3 Zrotation Yrotation Xrotation
									End Site
									{
										OFFSET 0.496640 -0.000000 0.496640 
									}
								}
							}
						}
					}
				}
				JOINT RightShoulder
				{
					OFFSET 0.000000 0.000000 0.000000 
					CHANNELS 3 Zrotation Yrotation Xrotation
					JOINT RightArm
					{
						OFFSET -3.281010 0.697070 0.007470 
						CHANNELS 3 Zrotation Yrotation Xrotation
						JOINT RightForeArm
						{
							OFFSET -5.122730 -0.000000 -0.000000 
							CHANNELS 3 Zrotation Yrotation Xrotation
							JOINT RightHand
							{
								OFFSET -3.422000 -0.000000 0.000000 
								CHANNELS 3 Zrotation Yrotation Xrotation
								JOINT RightFingerBase
								{
									OFFSET 0.000000 0.000000 0.000000 
									CHANNELS 3 Zrotation Yrotation Xrotation
									JOINT RightHandIndex1
									{
										OFFSET -0.704600 -0.000000 0.000000 
										CHANNELS 3 Zrotation Yrotation Xrotation
										End Site
										{
											OFFSET -0.568070 -0.000000 0.000000 
										}
									}
								}
								JOINT RThumb
								{
									OFFSET 0.000000 0.000000 0.000000 
									CHANNELS 3 Zrotation Yrotation Xrotation
									End Site
									{
										OFFSET -0.576740 -0.000000 0.576740 
									}
								}
							}
						}
					}
				}
			}
		}
	}
}
MOTION
Frames: 5
Frame Time: 0.008333
0.000000 15.999995 0.000000 871.356018 97.905197 874.750977 0.000000 0.000000 0.000000 -13.170800 -8.527200 -33.939999 2.504500 9.846100 28.479700 0.134900 -6.427300 -7.406300 1.660400 8.119800 23.078400 0.000000 0.000000 0.000000 26.502001 -1.154800 22.381901 0.000000 -0.000000 0.000000 -0.436600 1.550100 -12.039600 -0.150500 2.500200 -6.890200 1.410600 2.108100 -1.256200 -0.209800 2.796300 2.469200 -0.887400 1.439600 3.319100 4.163100 0.492000 -9.884700 -0.964400 0.234500 13.847500 -0.964800 0.294200 5.821800 0.000000 -0.000000 0.000000 -86.892899 8.511900 -12.801800 1.390000 -2.405900 -0.029200 -0.000000 -0.000000 15.311100 26.528099 49.482700 20.781300 -7.125000 0.000000 -0.000000 -42.554298 80.206703 -35.485699 0.000000 -0.000000 0.000000 90.692703 17.518101 36.172600 -20.311001 31.015301 -5.690800 0.000000 -0.000000 -4.136100 -29.130400 34.222500 -17.402201 7.125000 -0.000000 -0.000000 1.950600 7.907200 2.201600 
0.000000 15.999995 0.000000 872.307007 97.843597 875.776001 0.000000 0.000000 0.000000 -13.295500 -8.677800 -33.892601 2.545700 9.920500 28.719500 0.080400 -4.777100 -5.647200 2.548800 9.926100 28.737801 0.000000 0.000000 0.000000 26.178600 -1.405200 22.816999 0.000000 0.000000 -0.000000 -0.379900 1.980200 -11.123800 -0.149700 2.492900 -6.869900 1.146100 2.067700 -1.366100 -0.264700 2.748700 2.371300 -0.796400 1.408400 3.268400 4.276200 0.493400 -9.501500 -1.347100 0.298200 13.830100 -1.099100 0.304600 5.752200 -0.000000 -0.000000 0.000000 -86.941597 8.343600 -13.237200 1.357600 -2.349800 -0.027800 -0.000000 -0.000000 15.920000 26.769600 49.262001 20.918699 -7.125000 0.000000 -0.000000 -41.243698 80.184998 -34.331299 -0.000000 -0.000000 0.000000 90.823700 17.016600 36.394699 -19.934700 30.563601 -5.498100 0.000000 -0.000000 -3.656000 -29.424801 34.371101 -17.663000 7.125000 -0.000000 -0.000000 1.822700 8.144600 2.063500 
0.000000 15.999995 0.000000 874.129028 97.640503 877.708008 0.000000 0.000000 0.000000 -13.742700 -8.655700 -33.611301 2.548700 9.925900 28.737101 0.084800 -3.340500 -5.333300 2.293500 9.452400 27.220900 0.000000 0.000000 0.000000 25.680700 -1.719500 23.197399 0.000000 -0.000000 0.000000 -0.303400 2.916400 -9.807400 -0.093700 1.974600 -5.435500 0.704300 2.000100 -1.523200 -0.327900 2.669500 2.201400 -0.616200 1.356800 3.162000 4.220600 0.487400 -9.798000 -1.404900 0.315000 14.908800 -1.109900 0.324600 6.143300 0.000000 -0.000000 0.000000 -87.035797 8.063300 -13.661300 1.201800 -2.080500 -0.021800 -0.000000 -0.000000 16.566900 26.850000 49.566299 21.072800 -7.125000 0.000000 -0.000000 -42.671101 80.395103 -35.732601 0.000000 -0.000000 0.000000 90.835800 16.465599 36.754601 -19.529100 30.070801 -5.293300 0.000000 -0.000000 -3.828600 -29.178400 34.392101 -17.505600 7.125000 -0.000000 -0.000000 1.960500 8.096600 2.218300 
0.000000 15.999995 0.000000 876.327026 97.406097 880.015991 0.000000 0.000000 0.000000 -14.359500 -8.480200 -33.263599 2.545200 9.919600 28.716801 0.084600 -2.077300 -5.167600 1.257700 7.109400 20.039801 0.000000 0.000000 0.000000 25.123301 -2.047300 23.552799 0.000000 0.000000 -0.000000 -0.211600 3.785400 -8.207900 -0.051100 1.458100 -4.010400 0.278200 1.869100 -1.854000 -0.428000 2.508000 2.090100 -0.478800 1.266300 3.216800 4.143700 0.377400 -9.443200 -1.630600 0.233100 14.856800 -1.175200 0.264900 6.062300 -0.000000 0.000000 0.000000 -87.179100 7.742700 -14.246100 1.118200 -1.935900 -0.018900 -0.000000 -0.000000 17.306400 26.819599 49.896301 21.141399 -7.125000 0.000000 -0.000000 -44.392502 80.563103 -37.371899 -0.000000 0.000000 0.000000 90.937302 15.867900 37.226200 -19.200500 29.667101 -5.129700 0.000000 -0.000000 -4.058400 -28.783899 33.972099 -17.066099 7.125000 -0.000000 -0.000000 2.086600 7.550700 2.344100 
0.000000 15.999995 0.000000 877.924988 97.156502 881.768005 0.000000 0.000000 0.000000 -14.922700 -8.308700 -33.057899 2.557000 9.940900 28.785601 0.063000 -1.311900 -4.464700 0.359400 3.851200 10.658400 0.000000 0.000000 0.000000 24.630699 -2.388200 23.806499 0.000000 -0.000000 0.000000 -0.139200 3.986800 -6.777600 -0.071300 1.722100 -4.738300 -0.072800 1.708900 -2.277500 -0.537000 2.308500 1.975200 -0.392300 1.158800 3.325300 4.644600 0.526400 -9.353700 -2.185600 0.454200 14.984500 -1.416700 0.360400 6.095500 -0.000000 0.000000 0.000000 -87.261002 7.628200 -14.858000 1.192400 -2.064300 -0.021500 -0.000000 -0.000000 18.112600 26.538300 49.774300 20.872200 -7.125000 0.000000 -0.000000 -44.006802 80.373398 -36.883499 -0.000000 0.000000 0.000000 91.204803 15.145600 37.403999 -18.903700 29.298901 -4.983700 0.000000 -0.000000 -3.783800 -28.375601 33.500801 -16.601101 7.125000 -0.000000 -0.000000 2.213300 6.949500 2.466600 
